HIERARCHY
ROOT Hips
{
	OFFSET 0.000000 0.000000 0.000000
	CHANNELS 6 Xposition Yposition Zposition Zrotation Yrotation Xrotation 
	JOINT LHipJoint
	{
		OFFSET 0.000000 0.000000 0.000000
		CHANNELS 3 Zrotation Yrotation Xrotation
		JOINT LeftUpLeg
		{
			OFFSET 1.363060 -1.794630 0.839290
			CHANNELS 3 Zrotation Yrotation Xrotation
			JOINT LeftLeg
			{
				OFFSET 2.448110 -6.726130 0.000000
				CHANNELS 3 Zrotation Yrotation Xrotation
				JOINT LeftFoot
				{
					OFFSET 2.562200 -7.039590 0.000000
					CHANNELS 3 Zrotation Yrotation Xrotation
					JOINT LeftToeBase
					{
						OFFSET 0.157640 -0.433110 2.322550
						CHANNELS 3 Zrotation Yrotation Xrotation
						End Site
						{
							OFFSET 0.000000 0.000000 0.000000
						}
					}
				}
			}
		}
	}
	JOINT RHipJoint
	{
		OFFSET 0.000000 0.000000 0.000000
		CHANNELS 3 Zrotation Yrotation Xrotation
		JOINT RightUpLeg
		{
			OFFSET -1.305520 -1.794630 0.839290
			CHANNELS 3 Zrotation Yrotation Xrotation
			JOINT RightLeg
			{
				OFFSET -2.542530 -6.985550 0.000000
				CHANNELS 3 Zrotation Yrotation Xrotation
				JOINT RightFoot
				{
					OFFSET -2.568260 -7.056230 0.000000
					CHANNELS 3 Zrotation Yrotation Xrotation
					JOINT RightToeBase
					{
						OFFSET -0.164730 -0.452590 2.363150
						CHANNELS 3 Zrotation Yrotation Xrotation
						End Site
						{
							OFFSET 0.000000 0.000000 0.000000
						}
					}
				}
			}
		}
	}
}
MOTION
Frames: 22
Frame Time: 0.008333
2.172356 17.070260 2.636747 -178.787165 -82.230961 177.265097 -10.642974 2.486482 0.149480 -11.914872 10.873833 -5.902207 -2.106456 0.261547 18.940959 1.877095 9.411126 -15.348652 -1.596700 0.000000 -18.789500 9.635578 -0.669470 -0.351425 7.923334 -9.581259 -26.913855 1.384814 -2.172359 35.360961 -1.599506 -6.954619 -7.835466 -0.216200 -0.000000 -31.084700
2.025689 17.065836 2.637650 -178.228425 -82.591455 176.783545 -10.625886 2.523351 0.161340 -11.834284 10.681106 -5.008229 -2.111585 0.222279 18.336354 1.874557 9.303482 -15.528947 -1.619600 -0.000000 -19.057200 9.516862 -0.587543 -0.245049 8.432375 -9.591097 -27.328558 1.564508 -1.929710 32.329855 -1.627376 -7.105931 -7.258751 -0.341199 0.000000 -31.892100
1.878639 17.058962 2.637468 -177.918573 -82.943036 176.544738 -10.603147 2.559806 0.164254 -11.794242 10.491551 -4.082182 -2.117660 0.182160 17.706252 1.876017 9.220381 -15.700313 -1.643300 0.000000 -19.298500 9.409602 -0.512703 -0.135447 8.895166 -9.618889 -27.688446 1.746822 -1.673647 29.235352 -1.626476 -7.139891 -6.590926 -0.478599 0.000000 -32.954000
1.730985 17.049668 2.636045 -177.941388 -83.284426 176.634622 -10.575314 2.595188 0.157778 -11.799284 10.311565 -3.128990 -2.124941 0.140555 17.051615 1.881782 9.163562 -15.862402 -1.668500 -0.000000 -19.507900 9.314789 -0.443425 -0.019230 9.304747 -9.655781 -28.008757 1.932205 -1.404960 26.105329 -1.591010 -7.029752 -5.851087 -0.617800 -0.000000 -34.313400
1.582650 17.038076 2.633391 -178.365296 -83.613467 177.123712 -10.543244 2.628672 0.141410 -11.849742 10.149070 -2.157059 -2.133687 0.097039 16.376732 1.891623 9.131344 -16.015750 -1.695200 -0.000001 -19.687400 9.232574 -0.377617 0.106863 9.657044 -9.689841 -28.304894 2.120153 -1.124924 22.968893 -1.518288 -6.761487 -5.061540 -0.746600 -0.000000 -35.975200
1.433435 17.024307 2.629579 -179.227525 -83.926463 178.053064 -10.507803 2.659542 0.115034 -11.941641 10.011455 -1.175805 -2.143941 0.051300 15.687253 1.904887 9.119635 -16.160418 -1.723200 0.000001 -19.847001 9.162274 -0.313095 0.245540 9.951675 -9.707854 -28.590656 2.309162 -0.835299 19.855609 -1.409477 -6.336201 -4.248200 -0.853100 0.000000 -37.896400
1.283249 17.008538 2.624821 179.472519 -84.220478 179.424309 -10.469591 2.687360 0.079464 -12.066993 9.904548 -0.194888 -2.155510 0.003327 14.992430 1.920594 9.122162 -16.297731 -1.752200 0.000000 -20.002100 9.102768 -0.248000 0.398706 10.191184 -9.699340 -28.876467 2.496615 -0.538314 16.794848 -1.269444 -5.769602 -3.439031 -0.927600 0.000000 -39.994100
1.132036 16.990885 2.619321 177.776699 -84.492466 -178.803065 -10.428567 2.711942 0.035296 -12.215291 9.831809 0.777079 -2.168130 -0.046419 14.301959 1.937537 9.131559 -16.428426 -1.781199 -0.000000 -20.173101 9.052768 -0.180029 0.565918 10.382208 -9.657860 -29.169440 2.678957 -0.236458 13.814136 -1.106312 -5.090939 -2.663437 -0.964900 0.000000 -42.150900
0.979823 16.971451 2.613388 175.774399 -84.740740 -176.718913 -10.384390 2.733925 -0.015917 -12.373965 9.793474 1.733208 -2.181357 -0.096907 13.627218 1.954431 9.140398 -16.553055 -1.809400 -0.000000 -20.380900 9.011081 -0.107334 0.744908 10.534733 -9.583572 -29.471900 2.851928 0.067601 10.938237 -0.930396 -4.340862 -1.947311 -0.965100 0.000001 -44.247300
0.826625 16.950379 2.607236 173.571381 -84.967618 -174.428326 -10.336629 2.754748 -0.071379 -12.531839 9.783770 2.664236 -2.194985 -0.146503 12.983087 1.970137 9.141649 -16.673951 -1.836000 0.000000 -20.644299 8.976561 -0.028050 0.931710 10.661039 -9.483307 -29.787997 3.011046 0.371004 8.191496 -0.753491 -3.569928 -1.313302 -0.934400 -0.000000 -46.185600
0.672648 16.927697 2.601254 171.313871 -85.168277 -172.088204 -10.286101 2.776065 -0.131453 -12.674161 9.805008 3.581856 -2.207951 -0.193487 12.370770 1.983581 9.132014 -16.786052 -1.859300 -0.000000 -20.984800 8.947963 0.057969 1.118345 10.777736 -9.372388 -30.099657 3.153011 0.671474 5.580522 -0.584986 -2.822904 -0.770075 -0.882300 0.000000 -47.892001
0.517835 16.903514 2.595423 169.073195 -85.353801 -169.765314 -10.233796 2.800125 -0.190950 -12.795988 9.840542 4.471232 -2.220506 -0.235593 11.810348 1.994039 9.106839 -16.893149 -1.879000 0.000000 -21.407500 8.923836 0.151292 1.299205 10.897494 -9.267387 -30.415772 3.274566 0.965814 3.127947 -0.436232 -2.157949 -0.327751 -0.822399 -0.000000 -49.346300
0.362285 16.877922 2.589875 166.913838 -85.528493 -167.530907 -10.181972 2.828551 -0.248445 -12.890423 9.883918 5.338127 -2.232071 -0.270944 11.307864 2.001004 9.065705 -16.992046 -1.894000 -0.000001 -21.919600 8.902647 0.250508 1.466575 11.034131 -9.188373 -30.725579 3.374253 1.251555 0.838788 -0.314761 -1.619500 0.016067 -0.768000 0.000000 -50.543100
0.206141 16.851007 2.584505 164.807910 -85.702607 -165.360391 -10.131976 2.862013 -0.300919 -12.958610 9.918352 6.183440 -2.242346 -0.298059 10.870896 2.004992 9.013008 -17.081537 -1.904599 0.000000 -22.515600 8.883288 0.354277 1.613615 11.195395 -9.156104 -31.030810 3.451555 1.525082 -1.268888 -0.226518 -1.241939 0.255748 -0.729300 0.000000 -51.439300
0.049355 16.822893 2.579360 162.778265 -85.879378 -163.282014 -10.087357 2.901759 -0.349333 -12.992421 9.948907 7.012198 -2.251108 -0.315492 10.504235 2.004639 8.943879 -17.156695 -1.908800 0.000000 -23.200900 8.864937 0.459047 1.736551 11.389206 -9.178721 -31.312838 3.506277 1.785269 -3.213073 -0.175351 -1.060857 0.426079 -0.718400 0.000000 -52.144600
-0.107922 16.793754 2.574173 160.702221 -86.067509 -161.175015 -10.048472 2.947572 -0.392092 -12.997439 9.963030 7.823684 -2.258469 -0.322499 10.213178 2.000839 8.864203 -17.216925 -1.907400 0.000000 -23.965800 8.847692 0.563043 1.832989 11.611784 -9.263103 -31.576368 3.538760 2.028469 -4.978572 -0.163634 -1.091790 0.530529 -0.740600 -0.000000 -52.625100
-0.265911 16.763780 2.568792 158.492717 -86.269145 -158.950947 -10.017130 2.999977 -0.430025 -12.971744 9.965665 8.615687 -2.264804 -0.318609 10.002742 1.992755 8.770664 -17.259410 -1.899300 -0.000000 -24.815301 8.829508 0.662819 1.904220 11.852159 -9.390730 -31.873690 3.550122 2.240594 -6.443582 -0.191750 -1.349819 0.527346 -0.802500 0.000000 -52.936300
-0.424603 16.733284 2.562873 155.851916 -86.493241 -156.319583 -9.988665 3.056756 -0.453487 -12.934656 9.926954 9.399196 -2.269512 -0.306889 9.864070 1.984416 8.686606 -17.282653 -1.888100 0.000000 -25.716200 8.767600 0.747765 1.922213 12.104625 -9.492680 -33.306978 3.574181 2.195933 -5.259798 -0.223663 -1.709577 -0.895976 -0.891900 0.000000 -52.888599
-0.584047 16.702456 2.556460 152.744041 -86.725226 -153.232999 -9.968605 3.119954 -0.476356 -12.872217 9.884182 10.155148 -2.274239 -0.283905 9.808293 1.971989 8.590396 -17.286574 -1.870500 0.000000 -26.704900 8.713467 0.824210 1.930954 12.336265 -9.612136 -34.551723 3.576716 2.156031 -4.241066 -0.277441 -2.282361 -2.131632 -1.019800 0.000000 -52.627800
-0.744291 16.671655 2.549278 148.758204 -86.961437 -149.279456 -9.952041 3.187766 -0.493575 -12.810835 9.804836 10.895714 -2.277940 -0.251469 9.817210 1.961307 8.515132 -17.270936 -1.851300 -0.000000 -27.736001 8.669125 0.894782 1.925144 12.544463 -9.786358 -35.569172 3.561709 2.130595 -3.476221 -0.342953 -2.970369 -3.135602 -1.162200 0.000000 -52.000999
-0.905542 16.641144 2.541542 143.818183 -87.186003 -144.375889 -9.945397 3.260655 -0.510752 -12.732933 9.726930 11.600843 -2.281206 -0.209441 9.903411 1.947383 8.433453 -17.233123 -1.826301 0.000000 -28.879400 8.631267 0.957224 1.920745 12.695437 -9.939460 -36.365442 3.525017 2.117303 -2.933574 -0.421926 -3.789872 -3.895599 -1.326400 0.000000 -51.172100
-1.067873 16.611272 2.533136 137.543321 -87.386612 -138.141143 -9.945137 3.334838 -0.523424 -12.661324 9.619188 12.286653 -2.281868 -0.160406 10.043986 1.935638 8.375844 -17.173125 -1.800400 -0.000000 -30.067100 8.598754 1.012381 1.914130 12.789505 -10.098402 -36.901870 3.474347 2.126056 -2.691104 -0.516008 -4.632063 -4.384846 -1.482600 0.000000 -50.030100
